<?xml version="1.0" standalone="no"?>
<!DOCTYPE svg PUBLIC "-//W3C//DTD SVG 20010904//EN"
 "http://www.w3.org/TR/2001/REC-SVG-20010904/DTD/svg10.dtd">
<svg version="1.0" xmlns="http://www.w3.org/2000/svg"
 width="401.000000pt" height="339.000000pt" viewBox="0 0 401.000000 339.000000"
 preserveAspectRatio="xMidYMid meet">

<g transform="translate(0.000000,339.000000) scale(0.100000,-0.100000)"
fill="#000000" stroke="none">
<path d="M1705 3371 c-68 -17 -115 -58 -435 -375 -184 -183 -543 -537 -798
-788 l-462 -456 800 -789 c617 -608 811 -793 847 -810 119 -56 263 -6 326 112
21 38 22 53 25 388 l3 347 27 0 c54 0 309 -20 397 -31 681 -83 1179 -383 1557
-939 16 -24 17 -17 17 156 1 212 -10 341 -45 512 -88 440 -302 835 -625 1153
-258 255 -571 442 -919 551 -80 24 -146 39 -387 84 l-23 4 0 338 c0 378 -3
401 -66 466 -63 65 -162 97 -239 77z"/>
</g>
</svg>
