<?xml version="1.0" encoding="UTF-8" standalone="no"?>
<!-- Created with Inkscape (http://www.inkscape.org/) -->

<svg
   xmlns:dc="http://purl.org/dc/elements/1.1/"
   xmlns:cc="http://creativecommons.org/ns#"
   xmlns:rdf="http://www.w3.org/1999/02/22-rdf-syntax-ns#"
   xmlns:svg="http://www.w3.org/2000/svg"
   xmlns="http://www.w3.org/2000/svg"
   xmlns:sodipodi="http://sodipodi.sourceforge.net/DTD/sodipodi-0.dtd"
   xmlns:inkscape="http://www.inkscape.org/namespaces/inkscape"
   width="500"
   height="587.92395"
   id="svg5201"
   version="1.1"
   inkscape:version="0.48.4 r9939"
   sodipodi:docname="heartbeat16.svg"
   inkscape:export-filename="/home/tim/Pictures/Home/Stack Exchange/Health/Meta/Logo/heartbeat16.png"
   inkscape:export-xdpi="90"
   inkscape:export-ydpi="90">
  <defs
     id="defs5203" />
  <sodipodi:namedview
     id="base"
     pagecolor="#ffffff"
     bordercolor="#666666"
     borderopacity="1.0"
     inkscape:pageopacity="0.0"
     inkscape:pageshadow="2"
     inkscape:zoom="0.98994949"
     inkscape:cx="461.1918"
     inkscape:cy="323.95996"
     inkscape:document-units="px"
     inkscape:current-layer="layer1"
     showgrid="false"
     fit-margin-top="0"
     fit-margin-left="0"
     fit-margin-right="0"
     fit-margin-bottom="0"
     inkscape:window-width="1920"
     inkscape:window-height="1014"
     inkscape:window-x="0"
     inkscape:window-y="27"
     inkscape:window-maximized="1" />
  <metadata
     id="metadata5206">
    <rdf:RDF>
      <cc:Work
         rdf:about="">
        <dc:format>image/svg+xml</dc:format>
        <dc:type
           rdf:resource="http://purl.org/dc/dcmitype/StillImage" />
        <dc:title></dc:title>
      </cc:Work>
    </rdf:RDF>
  </metadata>
  <g
     inkscape:label="Layer 1"
     inkscape:groupmode="layer"
     id="layer1"
     transform="translate(-125,-238.40022)">
    <path
       id="rect4680"
       style="fill:#62b0df;fill-opacity:1;stroke:none"
       d="M 560.59444,738.40024 C 596.27512,738.40025 625,709.67536 625,673.99468 l 0,-371.18889 c 0,-35.68068 -28.72488,-64.40555 -64.40556,-64.40555 l -371.18888,0 C 153.72488,238.40024 125,267.12511 125,302.80579 l 0,371.18889 c 0,35.68068 28.72488,64.40546 64.40556,64.40546 l 231.10244,3e-5 4.1e-4,87.924 99.99959,-87.92399 z"
       inkscape:connector-curvature="0"
       sodipodi:nodetypes="sssssssscccs" />
    <path
       style="fill:#ffffff;fill-opacity:1;stroke:none"
       d="m 464.09375,310.6815 c -9.40537,-0.004 -18.93288,1.00068 -27,2.96875 -23.45342,5.72173 -43.68519,19.0727 -55.875,36.875 -2.80309,4.09369 -5.55404,7.4375 -6.125,7.4375 -0.57096,0 -3.23441,-3.32623 -5.90625,-7.375 -16.48648,-24.98283 -47.79414,-39.98572 -83.09375,-39.8125 -18.71868,0.0918 -31.50155,3.14828 -48.5625,11.59375 -22.25277,11.0155 -38.79178,27.9153 -49.875,50.96875 -7.79732,16.21871 -10.48525,26.54678 -11.53125,44.15625 -1.77784,29.93034 6.95788,61.31852 25.3125,92.9375 l 53.3125,0 a 4.7086036,4.7086036 0 0 1 4.375,3 l 3.90625,10.03125 3.1875,-9.21875 a 4.7086036,4.7086036 0 0 1 4.4375,-3.15625 l 13.4375,0 13.1875,-49.25 a 4.7086036,4.7086036 0 0 1 9.09375,0 l 12.59375,46.96875 13.34375,0 a 4.7086036,4.7086036 0 0 1 4.65625,4.03125 l 1.375,9.375 11.9375,-168.46875 a 4.7086036,4.7086036 0 0 1 4.59375,-4.375 4.7086036,4.7086036 0 0 1 4.78125,4.28125 L 380.21875,583.4315 389.75,515.369 a 4.7086036,4.7086036 0 0 1 4.65625,-4.0625 l 33.1875,0 25.5,-44.21875 a 4.7086036,4.7086036 0 0 1 8.15625,0 l 24.6875,42.75 63.25,0 c 11.09377,-19.19185 18.86759,-38.43619 23.09375,-57.53125 2.69775,-12.18923 2.3097,-44.62272 -0.65625,-56.21875 -3.28214,-12.8323 -13.90781,-34.45437 -21.6875,-44.09375 -14.41447,-17.86013 -37.04374,-32.42004 -59.625,-38.34375 -7.52582,-1.97416 -16.81338,-2.96505 -26.21875,-2.96875 z M 355.5,412.9315 344.625,566.33775 a 4.7086036,4.7086036 0 0 1 -9.34375,0.34375 L 328.25,518.244 l -12.875,0 a 4.7086036,4.7086036 0 0 1 -4.5625,-3.5 l -8.96875,-33.5 -9.59375,35.78125 a 4.7086036,4.7086036 0 0 1 -4.5625,3.46875 l -13.65625,0 -6.3125,18.15625 a 4.7086036,4.7086036 0 0 1 -8.84375,0.15625 l -7.375,-18.96875 -44.28125,0 c 30.32291,47.39116 81.97383,95.08248 151.9375,139.03125 8.34649,5.243 15.56058,9.53125 16.0625,9.53125 1.54931,0 30.42264,-18.48124 47.3125,-30.28125 54.22197,-37.88186 95.05979,-78.17048 120.9375,-118.875 l -60.25,0 a 4.7086036,4.7086036 0 0 1 -4.0625,-2.34375 L 457.1875,478.869 l -22.8125,39.5 a 4.7086036,4.7086036 0 0 1 -4.09375,2.375 l -31.75,0 -14.6875,104.71875 A 4.7086036,4.7086036 0 0 1 374.5,625.244 l -19,-212.3125 z m 192.125,99.53125 c -0.65702,1.1057 -1.32081,2.20728 -2,3.3125 0.67932,-1.10284 1.34288,-2.20889 2,-3.3125 z m -2,3.3125 c -0.70495,1.14445 -1.39661,2.29142 -2.125,3.4375 0.72556,-1.14168 1.42304,-2.29522 2.125,-3.4375 z M 204.25,515.119 c 0.88332,1.44769 1.79545,2.8954 2.71875,4.34375 -0.92203,-1.44408 -1.83079,-2.90422 -2.71875,-4.34375 z"
       id="path4167-56"
       inkscape:connector-curvature="0" />
  </g>
</svg>
