<?xml version="1.0" standalone="no"?>
<!DOCTYPE svg PUBLIC "-//W3C//DTD SVG 20010904//EN"
 "http://www.w3.org/TR/2001/REC-SVG-20010904/DTD/svg10.dtd">
<svg version="1.0" xmlns="http://www.w3.org/2000/svg"
 width="1974.000000pt" height="269.000000pt" viewBox="0 0 1974.000000 269.000000"
 preserveAspectRatio="xMidYMid meet">

<g transform="translate(0.000000,269.000000) scale(0.100000,-0.100000)"
fill="#000000" stroke="none">
<path d="M9210 2680 c-526 -73 -958 -406 -1124 -868 -53 -149 -70 -259 -70
-472 0 -213 17 -322 70 -472 143 -400 506 -717 944 -823 146 -35 299 -49 478
-42 333 11 605 100 834 272 81 61 218 196 218 214 0 8 -137 134 -427 395 l-42
37 -38 -42 c-60 -67 -177 -156 -256 -193 -107 -52 -192 -69 -327 -69 -339 3
-590 189 -677 503 -25 93 -25 358 0 450 40 142 128 280 229 358 197 151 496
192 726 99 99 -40 169 -86 261 -173 l86 -81 230 207 c126 114 231 213 233 219
2 6 -29 45 -70 87 -186 193 -415 315 -704 375 -112 23 -458 35 -574 19z"/>
<path d="M0 2335 l0 -295 395 0 395 0 0 -1000 0 -1000 375 0 375 0 0 1000 0
1000 395 0 395 0 0 295 0 295 -1165 0 -1165 0 0 -295z"/>
<path d="M2540 2340 l0 -290 598 0 c358 0 622 -4 660 -10 99 -16 167 -47 226
-101 147 -134 149 -392 3 -526 -55 -51 -88 -68 -169 -89 -54 -15 -149 -18
-690 -21 l-628 -5 0 -629 0 -629 370 0 370 0 0 345 0 345 198 0 197 -1 235
-344 234 -345 399 0 399 0 -18 27 c-9 16 -135 198 -280 405 l-262 377 86 55
c192 122 299 255 368 458 36 106 47 202 41 355 -5 145 -21 222 -69 340 -100
240 -332 433 -625 518 -177 52 -237 55 -967 55 l-676 0 0 -290z"/>
<path d="M6257 2623 c-11 -17 -1130 -2549 -1135 -2565 -4 -17 19 -18 376 -18
l380 0 202 508 c396 995 535 1342 540 1342 5 0 144 -347 540 -1342 l202 -508
389 0 388 0 -27 63 c-15 35 -272 617 -572 1295 l-545 1232 -367 0 c-202 0
-369 -3 -371 -7z"/>
<path d="M10670 2335 l0 -295 395 0 395 0 0 -1000 0 -1000 370 0 370 0 0 1000
0 1000 400 0 400 0 0 295 0 295 -1165 0 -1165 0 0 -295z"/>
<path d="M13210 1335 l0 -1295 370 0 370 0 0 1295 0 1295 -370 0 -370 0 0
-1295z"/>
<path d="M15231 2603 c-24 -51 -1063 -2407 -1097 -2486 l-33 -77 380 2 381 3
132 330 c73 182 240 599 371 928 l239 598 212 -533 c117 -293 284 -712 371
-930 l158 -398 389 0 c325 0 387 2 383 14 -3 7 -261 590 -573 1295 l-567 1281
-367 0 -367 0 -12 -27z"/>
<path d="M17270 2453 l1 -178 695 -840 c383 -462 801 -967 930 -1123 l234
-282 305 0 305 0 0 158 0 157 -383 486 c-210 267 -627 781 -926 1142 l-544
657 -308 0 -309 0 0 -177z"/>
<path d="M19010 2257 l0 -374 355 -429 c195 -236 360 -430 365 -432 7 -3 10
270 10 802 l0 806 -365 0 -365 0 0 -373z"/>
<path d="M17280 1399 c0 -185 -3 -566 -7 -847 l-6 -512 366 0 367 0 0 394 0
393 -336 429 c-185 236 -347 440 -360 454 l-24 25 0 -336z"/>
</g>
</svg>
